<?xml version="1.0" encoding="UTF-8" standalone="no" ?>
<!DOCTYPE svg PUBLIC "-//W3C//DTD SVG 1.1//EN" "http://www.w3.org/Graphics/SVG/1.1/DTD/svg11.dtd">
<svg xmlns="http://www.w3.org/2000/svg" xmlns:xlink="http://www.w3.org/1999/xlink" version="1.1" width="1080" height="1080" viewBox="0 0 1080 1080" xml:space="preserve">
<desc>Created with Fabric.js 5.2.4</desc>
<defs>
</defs>
<rect x="0" y="0" width="100%" height="100%" fill="transparent"></rect>
<g transform="matrix(1 0 0 1 540 540)" id="91c1f0b7-a1ad-4771-a2af-ce938cbcd3b4"  >
<rect style="stroke: none; stroke-width: 1; stroke-dasharray: none; stroke-linecap: butt; stroke-dashoffset: 0; stroke-linejoin: miter; stroke-miterlimit: 4; fill: rgb(255,255,255); fill-rule: nonzero; opacity: 1; visibility: hidden;" vector-effect="non-scaling-stroke"  x="-540" y="-540" rx="0" ry="0" width="1080" height="1080" />
</g>
<g transform="matrix(1 0 0 1 540 540)" id="ecd7fe7b-cfda-42db-91a7-025c3e9cbeaa"  >
</g>
<g transform="matrix(1.2 0 0 1.2 540 540)"  >
<path style="stroke: none; stroke-width: 1; stroke-dasharray: none; stroke-linecap: butt; stroke-dashoffset: 0; stroke-linejoin: miter; stroke-miterlimit: 4; fill: rgb(0,0,0); fill-rule: evenodd; opacity: 1;" vector-effect="non-scaling-stroke"  transform=" translate(-511.71, -532.28)" d="M 437 167.479 C 428.386 169.142 411.866 172.965 411.011 173.493 C 410.637 173.724 408.795 174.177 406.916 174.5 C 400.664 175.574 382.753 181.334 365.5 187.819 C 343.201 196.2 310.89 213.021 290.5 226.865 C 281.15 233.214 264.557 245.544 262.162 247.924 C 261.248 248.833 258.925 250.744 257 252.172 C 249.848 257.478 216.126 292.089 211.064 299.32 C 210.224 300.519 208.292 302.804 206.769 304.398 C 205.246 305.992 204 307.662 204 308.108 C 204 308.554 202.899 309.95 201.553 311.21 C 198.441 314.122 195.427 318.363 188.907 329 C 186.041 333.675 182.935 338.4 182.005 339.5 C 178.742 343.359 157.114 384.61 155.529 390 C 155.124 391.375 153.756 394.975 152.489 398 C 149.508 405.118 145.133 418.526 143.028 427 C 142.55 428.925 141.207 434.1 140.045 438.5 C 137.951 446.428 135.33 459.257 134.427 466 C 134.169 467.925 133.504 472.051 132.95 475.169 C 132.395 478.286 131.74 483.011 131.494 485.669 C 131.248 488.326 130.79 493.2 130.477 496.5 C 129.853 503.071 129.844 543.756 130.465 548.379 C 130.678 549.963 131.139 554.913 131.49 559.379 C 131.841 563.846 132.344 568.85 132.608 570.5 C 134.586 582.846 137.309 597.393 138.505 602 C 140.333 609.041 143.935 624.065 144.506 627.032 C 144.748 628.289 146.123 632.397 147.562 636.163 C 149.001 639.928 150.329 643.794 150.513 644.755 C 150.697 645.715 150.938 646.612 151.048 646.75 C 151.159 646.888 151.345 647.337 151.461 647.75 C 151.724 648.683 152.364 650.352 156.541 661 C 158.374 665.675 161.084 672.875 162.563 677 C 164.041 681.125 165.982 685.625 166.875 687 C 167.769 688.375 172.775 697.947 178 708.27 C 183.225 718.594 188.511 728.269 189.747 729.77 C 191.801 732.266 192.084 732.35 193.046 730.75 C 193.626 729.788 194.686 729 195.404 729 C 196.121 729 197.922 727.875 199.405 726.5 C 200.889 725.125 202.348 724 202.647 724 C 202.946 724 206.86 721.448 211.345 718.328 C 215.83 715.208 222.975 710.237 227.223 707.281 L 234.946 701.906 L 233.298 697.703 C 232.391 695.391 230.603 691.933 229.324 690.018 C 228.046 688.103 227 686.147 227 685.672 C 227 685.197 226.188 683.614 225.195 682.154 C 224.202 680.694 221.992 676.35 220.283 672.5 C 218.574 668.65 216.279 663.475 215.182 661 C 205.496 639.141 196.401 611.648 192.357 592 C 191.961 590.075 191.519 588.05 191.375 587.5 C 190.637 584.674 188.841 573.944 188.447 570 C 188.199 567.525 187.78 564.15 187.516 562.5 C 187.252 560.85 186.789 556.35 186.486 552.5 C 186.184 548.65 185.7 544.417 185.41 543.094 C 185.12 541.77 184.939 532.32 185.007 522.094 C 185.159 499.225 185.052 501.979 186.148 492.723 C 186.655 488.445 187.274 482.82 187.525 480.223 C 188.33 471.873 190.259 460.552 191.184 458.738 C 192.104 456.935 195.219 456.911 218.5 458.523 C 221.25 458.713 225.579 458.899 228.121 458.935 C 232.228 458.993 233.004 459.382 235.091 462.428 C 236.671 464.733 240.194 467.272 245.847 470.178 C 253.969 474.354 254.561 474.499 263.376 474.475 C 271.208 474.454 273.363 474.055 278.589 471.661 C 298.123 462.712 303.016 437.27 288.102 422.199 C 280.465 414.481 270.622 410.907 258.495 411.448 C 249.676 411.841 243.103 414.8 238.309 420.535 C 235.33 424.099 234.253 424.737 231.629 424.49 C 229.908 424.328 222.875 423.878 216 423.491 C 209.125 423.103 203.157 422.469 202.739 422.082 C 202.32 421.694 203.613 418.03 205.613 413.939 C 207.612 409.847 210.7 403.125 212.473 399 C 216.011 390.771 231.305 364.282 235.291 359.478 C 236.67 357.817 238.836 354.667 240.105 352.478 C 241.374 350.29 244.907 345.376 247.956 341.557 C 251.005 337.738 254.175 333.638 255 332.446 C 257.96 328.169 266.666 318.689 275.911 309.675 C 281.087 304.629 286.487 299.343 287.911 297.929 C 290.181 295.674 295.326 291.089 304.069 283.528 C 308.397 279.786 331.197 263.617 336.5 260.529 C 349.512 252.953 359.412 247.863 375.5 240.477 C 384.33 236.423 402.301 228.943 403.926 228.646 C 404.791 228.487 409.878 226.932 415.229 225.189 C 424.312 222.231 438.036 218.318 442.414 217.437 C 443.467 217.225 446.536 216.319 449.233 215.423 L 454.136 213.794 L 453.549 209.147 C 453.226 206.591 452.757 202.7 452.507 200.5 C 450.536 183.14 448.696 170.142 447.941 168.25 C 446.94 165.742 446.252 165.693 437 167.479 M 577.198 170.672 C 576.193 172.594 575.425 181.264 574.422 201.993 C 574.09 208.864 573.639 214.775 573.42 215.129 C 572.577 216.494 576.038 218.078 585.094 220.473 C 603.486 225.336 606.348 226.312 622.5 233.219 C 626.35 234.866 632.2 237.234 635.5 238.481 C 641.665 240.812 662.103 251.226 672.159 257.161 C 683.035 263.579 694.514 270.839 696.208 272.371 C 697.147 273.221 699.847 275.159 702.208 276.679 C 709.861 281.605 729.394 298.404 739.97 309.155 C 747.59 316.901 755 325.038 755 325.66 C 755 325.847 755.788 326.82 756.75 327.823 C 760.671 331.907 764.807 336.936 770.876 345 C 774.395 349.675 777.662 353.65 778.137 353.833 C 778.612 354.017 779 354.579 779 355.084 C 779 355.588 781.818 360.163 785.262 365.25 C 788.706 370.338 792.414 376.3 793.502 378.5 C 794.591 380.7 795.742 382.725 796.06 383 C 796.379 383.275 798.56 387.325 800.907 392 C 803.254 396.675 805.641 401.063 806.21 401.75 C 806.779 402.438 806.968 403 806.63 403 C 806.292 403 807.347 405.587 808.974 408.75 C 811.656 413.962 814.748 421.463 822.991 442.75 C 824.535 446.737 825.643 450 825.453 450 C 825.263 450 825.974 452.519 827.034 455.597 C 828.093 458.676 829.699 464.639 830.603 468.847 C 831.507 473.056 832.469 477.511 832.74 478.747 C 833.185 480.782 832.913 480.958 829.866 480.609 C 828.015 480.397 821.298 480.173 814.94 480.112 C 803.473 480.001 803.355 479.975 800.27 476.96 C 782.828 459.907 757.433 460.166 747.177 477.5 C 743.549 483.632 742.631 487.032 742.857 493.5 C 743.087 500.11 744.549 504.392 748.755 510.778 C 754.484 519.476 763.89 525.974 773 527.528 C 784.787 529.538 793.219 526.966 799.964 519.303 L 803.887 514.846 L 811.164 515.444 C 815.166 515.773 820.479 516.264 822.97 516.536 C 825.462 516.807 829.687 517.208 832.361 517.426 C 835.035 517.644 837.584 518.2 838.026 518.661 C 839.7 520.408 840.85 562.819 839.485 572.5 C 839.253 574.15 838.787 578.65 838.451 582.5 C 838.115 586.35 837.153 592.875 836.313 597 C 835.474 601.125 834.617 605.625 834.409 607 C 832.812 617.563 823.547 647.087 819.082 655.839 C 817.937 658.084 817 660.508 817 661.226 C 817 664.044 796.722 702.42 793.565 705.578 C 792.819 706.323 790.564 709.761 788.553 713.217 C 784.878 719.533 779.32 727.57 774.237 733.919 C 767.025 742.928 748.504 761.88 738.977 770 C 736.073 772.475 732.865 775.288 731.848 776.25 C 730.832 777.212 729.55 778 729 778 C 728.45 778 728 778.352 728 778.782 C 728 779.68 712.679 791.065 696.25 802.377 C 690.063 806.637 685 810.577 685 811.131 C 685 811.686 686.332 814.076 687.961 816.443 C 689.589 818.809 690.639 821.028 690.294 821.373 C 689.949 821.718 690.186 822 690.82 822 C 691.454 822 692.646 823.462 693.468 825.25 C 695.264 829.155 697.371 832.792 702.015 840.005 C 703.932 842.982 706.708 848.136 708.184 851.459 C 709.66 854.781 711.594 857.65 712.481 857.832 C 713.369 858.015 715.619 857.003 717.481 855.582 C 719.343 854.162 721.277 853 721.778 853 C 722.28 853 723.505 852.1 724.5 851 C 725.495 849.9 726.675 849 727.121 849 C 727.878 849 741.821 839.971 747.969 835.5 C 749.481 834.4 752.02 832.61 753.609 831.523 C 755.199 830.436 756.725 829.29 757 828.976 C 757.275 828.663 760.2 826.347 763.5 823.829 C 777.646 813.038 796.666 794.196 811.68 776.102 C 813.231 774.233 815.175 771.954 816 771.039 C 819.799 766.822 825.834 759.22 827.543 756.5 C 828.58 754.85 830.906 751.654 832.714 749.397 C 834.521 747.14 836 744.931 836 744.488 C 836 744.045 837.794 741.306 839.986 738.403 C 846.208 730.161 863.944 696.788 867.302 687 C 868.151 684.525 870.006 679.9 871.423 676.721 C 872.84 673.543 874 670.296 874 669.505 C 874 668.715 874.611 666.59 875.359 664.784 C 878.749 656.591 885.436 632.932 886.462 625.5 C 886.69 623.85 887.311 620.475 887.842 618 C 888.372 615.525 889.079 611.25 889.411 608.5 C 889.743 605.75 890.5 599.45 891.093 594.5 C 891.686 589.55 892.486 583.25 892.871 580.5 C 893.715 574.46 893.528 531.495 892.611 521 C 891.392 507.035 890.901 502.508 890.28 499.5 C 889.939 497.85 889.567 495.825 889.453 495 C 889.339 494.175 888.949 491.925 888.586 490 C 888.224 488.075 887.221 482.675 886.357 478 C 884.257 466.629 884.576 468.046 881.056 454.5 C 879.34 447.9 877.28 440.813 876.477 438.75 C 875.673 436.688 875.293 435 875.631 435 C 875.968 435 875.778 434.438 875.207 433.75 C 874.637 433.063 874.161 432.275 874.15 432 C 874.081 430.333 867.708 412.56 866.709 411.25 C 866.184 410.563 866.036 410 866.379 410 C 866.723 410 866.103 408.319 865.002 406.265 C 863.901 404.21 863 401.96 863 401.265 C 863 400.569 862.55 400 862 400 C 861.45 400 861 399.289 861 398.42 C 861 397.551 857.342 389.789 852.872 381.17 C 848.401 372.552 843.934 363.925 842.944 362 C 841.955 360.075 839.987 356.95 838.572 355.056 C 837.158 353.161 836 351.229 836 350.762 C 836 348.941 812.919 316.866 803.335 305.369 C 787.417 286.274 771.784 270.274 758.028 259 C 755.679 257.075 752.8 254.591 751.629 253.481 C 737.383 239.97 683.963 206.264 663.485 197.866 C 661.293 196.967 655.675 194.626 651 192.664 C 640.298 188.172 626.151 182.887 619 180.71 C 615.975 179.789 609.675 177.855 605 176.412 C 600.325 174.969 595.596 173.684 594.491 173.558 C 593.385 173.431 591.585 172.867 590.491 172.303 C 589.396 171.739 586.925 171.029 585 170.724 C 583.075 170.419 580.747 169.872 579.827 169.508 C 578.742 169.078 577.817 169.488 577.198 170.672 M 506.724 232.609 C 506.517 232.816 503.907 233.442 500.924 234 C 486.033 236.785 465.826 252.472 459.075 266.489 C 451.311 282.611 450.408 294.689 455.438 315.133 C 456.623 319.948 467.228 337 469.037 337 C 469.567 337 470 337.675 470 338.5 C 470 339.325 470.337 340.012 470.75 340.026 C 471.163 340.041 474.566 342.966 478.314 346.526 C 482.062 350.087 485.579 353 486.131 353 C 486.682 353 488.61 354.126 490.415 355.503 C 492.22 356.879 495.677 359.054 498.098 360.335 L 502.5 362.665 L 502.689 372.583 C 502.793 378.037 503.049 384.975 503.259 388 C 503.468 391.025 503.438 394.31 503.19 395.3 C 502.936 396.318 499.724 398.592 495.806 400.528 C 481.943 407.379 474.765 414.801 469.966 427.244 C 467.352 434.022 466.83 436.735 466.9 443.186 C 466.999 452.467 468.228 458.752 471.257 465.479 C 473.803 471.129 474.155 471.616 480.718 478.558 C 489.361 487.7 499.388 494.263 507.941 496.375 L 512.499 497.5 L 512.652 517 C 512.736 527.725 513.071 544.375 513.397 554 C 513.723 563.625 514.231 587.475 514.527 607 C 514.822 626.525 515.283 656.675 515.55 674 C 515.817 691.325 516.264 737.369 516.543 776.319 L 517.05 847.138 L 510.775 846.591 C 507.324 846.291 500.45 845.758 495.5 845.408 C 490.55 845.057 486.03 844.394 485.455 843.933 C 484.744 843.363 484.343 814.624 484.203 754.297 C 484.089 705.459 483.792 641.789 483.543 612.809 L 483.09 560.119 L 475.295 551.89 C 471.008 547.364 461.425 537.491 454 529.95 C 431.257 506.85 420.621 495.68 417.388 491.5 L 414.295 487.5 L 414.437 461.623 L 414.58 435.747 L 417.262 433.608 C 421.708 430.063 428.801 419.107 431.076 412.271 C 435.984 397.523 433.442 381.663 424.141 369 C 419.521 362.71 410.696 355.087 404.033 351.631 C 392.944 345.88 387.987 344.725 374 344.634 C 365.556 344.58 363.529 344.944 355.768 347.912 C 350.965 349.749 346.523 351.87 345.895 352.626 C 345.268 353.382 344.328 354 343.806 354 C 343.284 354 342.264 354.593 341.539 355.318 C 340.814 356.044 338.924 357.731 337.341 359.068 C 334.093 361.811 331.534 365.703 327.088 374.664 C 318.867 391.233 323.868 413.396 339.149 428.115 C 349.136 437.735 358.115 442.093 370.96 443.554 C 373.413 443.833 375.678 444.478 375.992 444.988 C 376.307 445.497 376.672 458.195 376.802 473.207 C 376.933 488.218 377.315 501.4 377.651 502.5 C 377.987 503.6 379.89 506.109 381.881 508.076 C 383.871 510.043 389.775 516.286 395 521.951 C 400.225 527.615 406.525 534.365 409 536.951 C 411.475 539.536 418.675 547.212 425 554.008 C 431.325 560.805 437.898 567.767 439.606 569.48 C 441.774 571.653 442.918 573.97 443.395 577.149 C 444.393 583.801 445.603 692.151 445.084 728.371 L 445 734.242 L 431.75 733.673 C 416.489 733.019 409.19 732.117 408.367 730.784 C 408.049 730.27 407.757 710.066 407.718 685.888 L 407.648 641.929 L 405.074 639.12 C 403.658 637.575 400.25 633.71 397.5 630.53 C 394.75 627.35 390.7 622.848 388.5 620.524 C 382.548 614.238 352.814 583.192 342.5 572.494 C 320.35 549.521 321.509 550.964 320.023 544.5 C 319.265 541.2 318.489 537.6 318.299 536.5 C 318.109 535.4 316.614 532.626 314.977 530.337 C 313.34 528.047 312 525.93 312 525.632 C 312 524.769 307.207 520.21 301.836 515.965 C 292.568 508.639 276.202 505.569 264 508.867 C 254.496 511.436 247.925 515.934 241.712 524.125 C 235.105 532.836 233.118 538.772 233.693 548.083 C 234.809 566.172 245.66 580.449 263.5 587.302 C 267.158 588.708 271.049 589.225 278 589.231 C 286.382 589.239 288.319 588.884 294.459 586.216 L 301.417 583.192 L 303.81 585.346 C 308.817 589.854 313.736 594.911 320.5 602.504 C 324.35 606.826 329.525 612.496 332 615.105 C 334.475 617.713 340.864 624.494 346.199 630.173 C 351.533 635.853 358.553 643.304 361.799 646.732 L 367.7 652.964 L 367.886 662.732 C 367.988 668.104 368.25 674.229 368.469 676.342 C 368.688 678.455 368.667 680.705 368.422 681.342 C 368.117 682.137 364.237 682.471 356.03 682.407 C 343.519 682.309 341 681.543 341 677.838 C 341 674.615 337.034 667.916 331.933 662.522 C 326.712 657.003 315.772 650.857 308 649.079 C 286.881 644.246 267.544 654.645 259.439 675.192 C 257.655 679.716 257.234 682.611 257.388 689.312 C 257.561 696.83 257.982 698.541 261.285 705.135 C 266.047 714.645 269.818 719.15 277.016 723.932 C 288.042 731.255 298.975 733.812 311.081 731.898 C 316.641 731.019 326.381 725.321 331.291 720.075 L 334.082 717.093 L 350.52 717.359 C 359.561 717.506 367.295 717.962 367.707 718.374 C 368.119 718.786 368.362 722.291 368.247 726.163 C 368.133 730.036 368.497 734.059 369.056 735.105 C 369.616 736.15 374.894 741.87 380.787 747.814 C 386.679 753.759 393.85 761.183 396.722 764.312 C 400.977 768.947 402.55 770.012 405.222 770.062 C 407.025 770.096 416.152 770.226 425.504 770.351 C 434.856 770.476 442.978 770.869 443.554 771.224 C 444.248 771.653 444.543 780.909 444.429 798.686 C 444.164 840.042 444.555 836 440.821 836 C 439.073 836 436.26 835.58 434.571 835.068 C 432.882 834.555 429.475 833.618 427 832.985 C 424.525 832.353 420.714 831.318 418.532 830.686 C 416.35 830.053 414.1 829.514 413.532 829.487 C 412.964 829.46 410.758 828.664 408.628 827.719 C 406.498 826.773 404.297 826 403.736 826 C 403.174 826 399.067 824.476 394.608 822.614 C 390.148 820.752 384.475 818.468 382 817.538 C 376.356 815.419 338.021 795.356 332.1 791.423 C 318.117 782.134 313.941 779.326 311.818 777.784 C 308.474 775.356 305.654 776.485 302.959 781.33 C 300.256 786.191 291.469 799.546 286.766 805.94 C 284.97 808.382 282.491 812.193 281.258 814.409 L 279.017 818.438 L 281.758 820.714 C 286.532 824.676 300.943 834.305 310.388 839.844 C 322.235 846.792 357.996 864.774 363.345 866.472 C 365.63 867.198 370.65 869.141 374.5 870.791 C 380.982 873.568 383.783 874.621 397.5 879.434 C 401.703 880.908 420.646 885.964 427.5 887.441 C 428.6 887.678 431.75 888.365 434.5 888.967 C 442.574 890.734 467.073 894.947 472.5 895.501 C 475.25 895.781 479.525 896.217 482 896.468 C 493.752 897.663 512.259 898.376 530 898.318 C 550.983 898.25 556.503 897.906 575.5 895.489 C 577.15 895.279 580.75 894.823 583.5 894.476 C 588.78 893.81 601.127 891.669 609.5 889.969 C 612.25 889.411 615.85 888.718 617.5 888.431 C 625.089 887.109 636.673 883.526 638.325 881.991 C 640.082 880.358 639.983 879.964 635.669 871.397 C 633.205 866.504 630.425 860.7 629.493 858.5 C 628.561 856.3 625.481 849.775 622.649 844 C 616.624 831.713 618.324 832.282 601 836.75 C 586.493 840.491 577.635 842.089 563.25 843.558 C 557.206 844.175 556.995 844.119 556.842 841.848 C 556.076 830.437 555.791 770.147 556.498 769.003 C 556.796 768.521 558.268 767.481 559.77 766.692 C 561.271 765.903 564.75 764.005 567.5 762.475 C 570.25 760.945 573.85 759.001 575.5 758.156 C 577.15 757.311 580.735 755.017 583.467 753.06 C 586.199 751.102 588.674 749.547 588.967 749.605 C 589.26 749.662 591.179 748.65 593.23 747.355 C 595.282 746.06 597.226 745 597.55 745 C 597.874 745 600.102 743.65 602.5 742 C 604.898 740.35 607.136 739 607.473 739 C 607.81 739 610.879 737.238 614.293 735.085 C 617.707 732.931 621.999 730.227 623.832 729.076 C 625.665 727.925 627.465 727.167 627.832 727.392 C 628.425 727.755 639.108 728.43 660.434 729.452 C 665.81 729.709 667.661 730.202 668.669 731.642 C 680.194 748.107 691.026 754.564 708.816 755.574 C 713.736 755.854 716.597 755.382 721.757 753.439 C 732.742 749.305 737.959 744.479 743.55 733.281 C 747.032 726.308 747.435 724.721 747.426 718 C 747.407 702.956 744.259 695.158 734.302 685.49 C 726.988 678.389 722.801 676.081 712.663 673.562 C 700.955 670.653 690.018 672.225 681.5 678.042 C 676.883 681.195 671.19 687.154 668.613 691.531 L 666.828 694.562 L 658.164 694.274 C 649.567 693.988 630.933 693.257 627.941 693.088 C 626.613 693.013 626.413 691.332 626.595 681.75 C 626.853 668.178 626.758 669 628.07 669 C 628.658 669 631.021 667.763 633.32 666.25 C 635.619 664.737 639.3 662.634 641.5 661.575 C 643.7 660.516 646.85 658.82 648.5 657.808 C 666.415 646.809 689.192 633.52 695.305 630.499 L 702.905 626.743 L 706.102 629.432 C 713.932 636.021 729.598 641.339 738.314 640.367 C 749.692 639.099 754.766 636.854 761.575 630.08 C 770.346 621.352 773.968 612.143 773.573 599.571 C 773.103 584.614 765.045 571.783 751.094 563.777 C 737.685 556.082 719.642 556.397 707.376 564.539 C 700.556 569.065 697.4 573.005 692.158 583.531 C 689.096 589.679 687.093 592.494 685.182 593.339 C 683.707 593.99 680.7 595.658 678.5 597.044 C 676.3 598.43 672.593 600.449 670.261 601.532 C 667.93 602.614 666.018 603.837 666.011 604.25 C 666.005 604.663 665.584 605 665.075 605 C 664.566 605 659.279 607.768 653.325 611.152 C 647.371 614.535 640.965 618.168 639.089 619.225 C 637.213 620.282 634.071 622.239 632.107 623.573 C 630.143 624.908 628.078 626 627.518 626 C 626.584 625.999 626.303 615.397 625.636 555.206 L 625.5 542.912 L 633.5 538.482 C 637.9 536.046 646.675 531.48 653 528.337 C 659.325 525.193 664.725 522.369 665 522.06 C 665.275 521.752 668.65 519.925 672.5 518 C 676.35 516.075 679.842 514.05 680.261 513.5 C 680.679 512.95 680.816 510.013 680.565 506.974 C 679.485 493.92 678.935 461.405 679.775 460.2 C 680.273 459.485 681.539 458.928 682.59 458.963 C 683.64 458.998 687.65 459.201 691.5 459.415 C 701.383 459.964 708.392 458.596 716.694 454.497 C 727.189 449.317 734.368 440.811 739.059 428 C 740.697 423.526 741.195 408.29 739.861 403.458 C 739.298 401.419 738.661 398.836 738.446 397.719 C 737.632 393.494 731.231 384.34 723.996 377.055 C 717.955 370.973 714.641 368.594 706.996 364.85 C 690.173 356.613 674.461 356.485 657.816 364.451 C 643.213 371.44 631.566 391.057 631.664 408.5 C 631.699 414.605 635.108 425.566 639.751 434.5 C 640.629 436.189 641.413 440.558 641.546 444.5 C 642.676 478.108 643.145 488.726 643.564 490.118 C 643.868 491.127 643.006 492.421 641.276 493.555 C 639.749 494.555 638.325 495.251 638.112 495.101 C 637.898 494.952 637.448 495.243 637.112 495.748 C 636.775 496.253 633.8 497.931 630.5 499.476 C 605.973 510.96 587.414 521.308 586.743 523.874 C 586.484 524.866 586.413 531.938 586.586 539.589 C 586.759 547.24 587.173 569.475 587.507 589 C 587.841 608.525 588.267 627.425 588.453 631 C 589.021 641.899 589.453 705.888 588.961 706.266 C 588.391 706.704 575.758 714.067 571 716.735 C 569.075 717.814 565.115 720.168 562.2 721.965 C 559.285 723.763 556.585 724.918 556.2 724.534 C 555.321 723.655 555.423 726.396 554.607 681.5 C 553.394 614.753 552.956 593.831 552.472 579.5 C 551.596 553.591 551.162 496.354 551.834 495.423 C 552.2 494.915 555.159 493.15 558.41 491.5 C 561.66 489.85 566.214 486.7 568.529 484.5 C 572.822 480.422 579.43 468.916 580.591 463.5 C 581.832 457.711 581.697 446.461 580.315 440.51 C 579.039 435.013 575.482 426.213 574.046 425 C 573.72 424.725 572.689 423.297 571.753 421.826 C 568.005 415.93 560.325 408.785 553.142 404.51 C 548.974 402.03 545.002 400 544.317 400 C 541.798 400 540.862 395.565 540.336 381.132 L 539.797 366.367 L 547.649 364.11 C 565.977 358.842 575.387 352.337 587.592 336.5 C 591.223 331.788 595.627 321.215 597.054 313.778 C 598.228 307.668 598.119 294.557 596.868 291.199 C 596.396 289.933 595.758 287.467 595.451 285.719 C 593.97 277.313 586.669 265.291 576.6 254.681 C 573.015 250.903 559.854 242.075 554.484 239.847 C 538.475 233.204 531.906 231.842 516.993 232.077 C 511.552 232.162 506.932 232.402 506.724 232.609 M 515.734 274.184 C 507.105 275.997 499.398 282.233 497.071 289.284 C 495.605 293.727 496.396 302.408 498.579 305.833 C 502.419 311.857 507.387 317.156 510.836 318.909 C 523.069 325.123 535.645 325.29 544.214 319.352 C 551.087 314.589 553.181 310.352 553.202 301.164 C 553.219 294.368 550.599 287.812 545.862 282.794 C 541.3 277.962 538.332 276.237 531.518 274.463 C 525.514 272.899 522.133 272.839 515.734 274.184 M 374.872 376.462 C 374.6 376.733 373.506 377.1 372.439 377.279 C 361.623 379.084 355.777 391.761 361.02 402.039 C 363.734 407.359 369.318 410.863 377.15 412.161 C 382.899 413.113 384.007 413.006 388.026 411.108 C 390.507 409.936 393.569 407.423 394.9 405.467 C 397.364 401.844 398.737 394.069 397.665 389.804 C 396.792 386.332 389.472 379.002 385.768 377.89 C 381.541 376.622 375.503 375.83 374.872 376.462 M 676.092 393.549 C 672.213 395.346 671.004 396.579 669.33 400.447 C 664.985 410.485 668.786 420.026 679.088 424.941 C 693.462 431.799 707.251 423.53 705.688 408.99 C 704.26 395.71 688.818 387.653 676.092 393.549 M 514.387 428.75 C 506.905 432.999 502.594 438.81 502.802 444.363 C 503.163 453.955 510.672 463.634 519.315 465.649 C 524.142 466.775 531.164 466.024 535.828 463.884 C 539.61 462.149 541.301 460.564 543.453 456.736 C 545.819 452.528 546.144 451.029 545.702 446.375 C 545.225 441.347 544.387 439.407 540.698 434.783 C 539.944 433.838 536.733 431.701 533.562 430.033 C 526.75 426.449 519.315 425.952 514.387 428.75" stroke-linecap="round" />
</g>
<g transform="matrix(NaN NaN NaN NaN 0 0)"  >
<g style=""   >
</g>
</g>
</svg>
