<?xml version="1.0" encoding="UTF-8" standalone="no"?>
<svg
   version="1.1"
   width="30.75mm"
   height="30.75mm"
   viewBox="0 0 116.22048 116.22048"
   xml:space="preserve"
   id="svg4"
   sodipodi:docname="logo.svg"
   inkscape:version="1.3.2 (091e20e, 2023-11-25)"
   xmlns:inkscape="http://www.inkscape.org/namespaces/inkscape"
   xmlns:sodipodi="http://sodipodi.sourceforge.net/DTD/sodipodi-0.dtd"
   xmlns="http://www.w3.org/2000/svg"
   xmlns:svg="http://www.w3.org/2000/svg"><sodipodi:namedview
   id="namedview4"
   pagecolor="#ffffff"
   bordercolor="#000000"
   borderopacity="0.25"
   inkscape:showpageshadow="2"
   inkscape:pageopacity="0.0"
   inkscape:pagecheckerboard="0"
   inkscape:deskcolor="#d1d1d1"
   inkscape:zoom="2.0494698"
   inkscape:cx="72.701729"
   inkscape:cy="113.44397"
   inkscape:window-width="1216"
   inkscape:window-height="760"
   inkscape:window-x="217"
   inkscape:window-y="40"
   inkscape:window-maximized="0"
   inkscape:current-layer="svg4"
   inkscape:document-units="mm" />
<desc
   id="desc1">Created with Fabric.js 5.2.4</desc>
<defs
   id="defs1">
</defs>



<g
   transform="matrix(0.14852783,0,0,0.1548553,58.871279,58.28002)"
   id="g2">
<path
   style="opacity:1;fill:#000000;fill-rule:evenodd;stroke:none;stroke-width:1;stroke-linecap:butt;stroke-linejoin:miter;stroke-miterlimit:4;stroke-dasharray:none;stroke-dashoffset:0"
   vector-effect="non-scaling-stroke"
   transform="translate(-511.71,-532.28)"
   d="m 437,167.479 c -8.614,1.663 -25.134,5.486 -25.989,6.014 -0.374,0.231 -2.216,0.684 -4.095,1.007 -6.252,1.074 -24.163,6.834 -41.416,13.319 -22.299,8.381 -54.61,25.202 -75,39.046 -9.35,6.349 -25.943,18.679 -28.338,21.059 -0.914,0.909 -3.237,2.82 -5.162,4.248 -7.152,5.306 -40.874,39.917 -45.936,47.148 -0.84,1.199 -2.772,3.484 -4.295,5.078 -1.523,1.594 -2.769,3.264 -2.769,3.71 0,0.446 -1.101,1.842 -2.447,3.102 -3.112,2.912 -6.126,7.153 -12.646,17.79 -2.866,4.675 -5.972,9.4 -6.902,10.5 -3.263,3.859 -24.891,45.11 -26.476,50.5 -0.405,1.375 -1.773,4.975 -3.04,8 -2.981,7.118 -7.356,20.526 -9.461,29 -0.478,1.925 -1.821,7.1 -2.983,11.5 -2.094,7.928 -4.715,20.757 -5.618,27.5 -0.258,1.925 -0.923,6.051 -1.477,9.169 -0.555,3.117 -1.21,7.842 -1.456,10.5 -0.246,2.657 -0.704,7.531 -1.017,10.831 -0.624,6.571 -0.633,47.256 -0.012,51.879 0.213,1.584 0.674,6.534 1.025,11 0.351,4.467 0.854,9.471 1.118,11.121 1.978,12.346 4.701,26.893 5.897,31.5 1.828,7.041 5.43,22.065 6.001,25.032 0.242,1.257 1.617,5.365 3.056,9.131 1.439,3.765 2.767,7.631 2.951,8.592 0.184,0.96 0.425,1.857 0.535,1.995 0.111,0.138 0.297,0.587 0.413,1 0.263,0.933 0.903,2.602 5.08,13.25 1.833,4.675 4.543,11.875 6.022,16 1.478,4.125 3.419,8.625 4.312,10 0.894,1.375 5.9,10.947 11.125,21.27 5.225,10.324 10.511,19.999 11.747,21.5 2.054,2.496 2.337,2.58 3.299,0.98 0.58,-0.962 1.64,-1.75 2.358,-1.75 0.717,0 2.518,-1.125 4.001,-2.5 1.484,-1.375 2.943,-2.5 3.242,-2.5 0.299,0 4.213,-2.552 8.698,-5.672 4.485,-3.12 11.63,-8.091 15.878,-11.047 l 7.723,-5.375 -1.648,-4.203 c -0.907,-2.312 -2.695,-5.77 -3.974,-7.685 -1.278,-1.915 -2.324,-3.871 -2.324,-4.346 0,-0.475 -0.812,-2.058 -1.805,-3.518 -0.993,-1.46 -3.203,-5.804 -4.912,-9.654 -1.709,-3.85 -4.004,-9.025 -5.101,-11.5 -9.686,-21.859 -18.781,-49.352 -22.825,-69 -0.396,-1.925 -0.838,-3.95 -0.982,-4.5 -0.738,-2.826 -2.534,-13.556 -2.928,-17.5 -0.248,-2.475 -0.667,-5.85 -0.931,-7.5 -0.264,-1.65 -0.727,-6.15 -1.03,-10 -0.302,-3.85 -0.786,-8.083 -1.076,-9.406 -0.29,-1.324 -0.471,-10.774 -0.403,-21 0.152,-22.869 0.045,-20.115 1.141,-29.371 0.507,-4.278 1.126,-9.903 1.377,-12.5 0.805,-8.35 2.734,-19.671 3.659,-21.485 0.92,-1.803 4.035,-1.827 27.316,-0.215 2.75,0.19 7.079,0.376 9.621,0.412 4.107,0.058 4.883,0.447 6.97,3.493 1.58,2.305 5.103,4.844 10.756,7.75 8.122,4.176 8.714,4.321 17.529,4.297 7.832,-0.021 9.987,-0.42 15.213,-2.814 19.534,-8.949 24.427,-34.391 9.513,-49.462 -7.637,-7.718 -17.48,-11.292 -29.607,-10.751 -8.819,0.393 -15.392,3.352 -20.186,9.087 -2.979,3.564 -4.056,4.202 -6.68,3.955 -1.721,-0.162 -8.754,-0.612 -15.629,-0.999 -6.875,-0.388 -12.843,-1.022 -13.261,-1.409 -0.419,-0.388 0.874,-4.052 2.874,-8.143 1.999,-4.092 5.087,-10.814 6.86,-14.939 3.538,-8.229 18.832,-34.718 22.818,-39.522 1.379,-1.661 3.545,-4.811 4.814,-7 1.269,-2.188 4.802,-7.102 7.851,-10.921 3.049,-3.819 6.219,-7.919 7.044,-9.111 2.96,-4.277 11.666,-13.757 20.911,-22.771 5.176,-5.046 10.576,-10.332 12,-11.746 2.27,-2.255 7.415,-6.84 16.158,-14.401 4.328,-3.742 27.128,-19.911 32.431,-22.999 13.012,-7.576 22.912,-12.666 39,-20.052 8.83,-4.054 26.801,-11.534 28.426,-11.831 0.865,-0.159 5.952,-1.714 11.303,-3.457 9.083,-2.958 22.807,-6.871 27.185,-7.752 1.053,-0.212 4.122,-1.118 6.819,-2.014 l 4.903,-1.629 -0.587,-4.647 c -0.323,-2.556 -0.792,-6.447 -1.042,-8.647 -1.971,-17.36 -3.811,-30.358 -4.566,-32.25 -1.001,-2.508 -1.689,-2.557 -10.941,-0.771 m 140.198,3.193 c -1.005,1.922 -1.773,10.592 -2.776,31.321 -0.332,6.871 -0.783,12.782 -1.002,13.136 -0.843,1.365 2.618,2.949 11.674,5.344 18.392,4.863 21.254,5.839 37.406,12.746 3.85,1.647 9.7,4.015 13,5.262 6.165,2.331 26.603,12.745 36.659,18.68 10.876,6.418 22.355,13.678 24.049,15.21 0.939,0.85 3.639,2.788 6,4.308 7.653,4.926 27.186,21.725 37.762,32.476 7.62,7.746 15.03,15.883 15.03,16.505 0,0.187 0.788,1.16 1.75,2.163 3.921,4.084 8.057,9.113 14.126,17.177 3.519,4.675 6.786,8.65 7.261,8.833 0.475,0.184 0.863,0.746 0.863,1.251 0,0.504 2.818,5.079 6.262,10.166 3.444,5.088 7.152,11.05 8.24,13.25 1.089,2.2 2.24,4.225 2.558,4.5 0.319,0.275 2.5,4.325 4.847,9 2.347,4.675 4.734,9.063 5.303,9.75 0.569,0.688 0.758,1.25 0.42,1.25 -0.338,0 0.717,2.587 2.344,5.75 2.682,5.212 5.774,12.713 14.017,34 1.544,3.987 2.652,7.25 2.462,7.25 -0.19,0 0.521,2.519 1.581,5.597 1.059,3.079 2.665,9.042 3.569,13.25 0.904,4.209 1.866,8.664 2.137,9.9 0.445,2.035 0.173,2.211 -2.874,1.862 -1.851,-0.212 -8.568,-0.436 -14.926,-0.497 -11.467,-0.111 -11.585,-0.137 -14.67,-3.152 -17.442,-17.053 -42.837,-16.794 -53.093,0.54 -3.628,6.132 -4.546,9.532 -4.32,16 0.23,6.61 1.692,10.892 5.898,17.278 5.729,8.698 15.135,15.196 24.245,16.75 11.787,2.01 20.219,-0.562 26.964,-8.225 l 3.923,-4.457 7.277,0.598 c 4.002,0.329 9.315,0.82 11.806,1.092 2.492,0.271 6.717,0.672 9.391,0.89 2.674,0.218 5.223,0.774 5.665,1.235 1.674,1.747 2.824,44.158 1.459,53.839 -0.232,1.65 -0.698,6.15 -1.034,10 -0.336,3.85 -1.298,10.375 -2.138,14.5 -0.839,4.125 -1.696,8.625 -1.904,10 -1.597,10.563 -10.862,40.087 -15.327,48.839 -1.145,2.245 -2.082,4.669 -2.082,5.387 0,2.818 -20.278,41.194 -23.435,44.352 -0.746,0.745 -3.001,4.183 -5.012,7.639 -3.675,6.316 -9.233,14.353 -14.316,20.702 -7.212,9.009 -25.733,27.961 -35.26,36.081 -2.904,2.475 -6.112,5.288 -7.129,6.25 -1.016,0.962 -2.298,1.75 -2.848,1.75 -0.55,0 -1,0.352 -1,0.782 0,0.898 -15.321,12.283 -31.75,23.595 -6.187,4.26 -11.25,8.2 -11.25,8.754 0,0.555 1.332,2.945 2.961,5.312 1.628,2.366 2.678,4.585 2.333,4.93 -0.345,0.345 -0.108,0.627 0.526,0.627 0.634,0 1.826,1.462 2.648,3.25 1.796,3.905 3.903,7.542 8.547,14.755 1.917,2.977 4.693,8.131 6.169,11.454 1.476,3.322 3.41,6.191 4.297,6.373 0.888,0.183 3.138,-0.829 5,-2.25 1.862,-1.42 3.796,-2.582 4.297,-2.582 0.502,0 1.727,-0.9 2.722,-2 0.995,-1.1 2.175,-2 2.621,-2 0.757,0 14.7,-9.029 20.848,-13.5 1.512,-1.1 4.051,-2.89 5.64,-3.977 1.59,-1.087 3.116,-2.233 3.391,-2.547 0.275,-0.313 3.2,-2.629 6.5,-5.147 14.146,-10.791 33.166,-29.633 48.18,-47.727 1.551,-1.869 3.495,-4.148 4.32,-5.063 3.799,-4.217 9.834,-11.819 11.543,-14.539 1.037,-1.65 3.363,-4.846 5.171,-7.103 1.807,-2.257 3.286,-4.466 3.286,-4.909 0,-0.443 1.794,-3.182 3.986,-6.085 6.222,-8.242 23.958,-41.615 27.316,-51.403 0.849,-2.475 2.704,-7.1 4.121,-10.279 1.417,-3.178 2.577,-6.425 2.577,-7.216 0,-0.79 0.611,-2.915 1.359,-4.721 3.39,-8.193 10.077,-31.852 11.103,-39.284 0.228,-1.65 0.849,-5.025 1.38,-7.5 0.53,-2.475 1.237,-6.75 1.569,-9.5 0.332,-2.75 1.089,-9.05 1.682,-14 0.593,-4.95 1.393,-11.25 1.778,-14 0.844,-6.04 0.657,-49.005 -0.26,-59.5 -1.219,-13.965 -1.71,-18.492 -2.331,-21.5 -0.341,-1.65 -0.713,-3.675 -0.827,-4.5 -0.114,-0.825 -0.504,-3.075 -0.867,-5 -0.362,-1.925 -1.365,-7.325 -2.229,-12 -2.1,-11.371 -1.781,-9.954 -5.301,-23.5 -1.716,-6.6 -3.776,-13.687 -4.579,-15.75 -0.804,-2.062 -1.184,-3.75 -0.846,-3.75 0.337,0 0.147,-0.562 -0.424,-1.25 -0.57,-0.687 -1.046,-1.475 -1.057,-1.75 -0.069,-1.667 -6.442,-19.44 -7.441,-20.75 -0.525,-0.687 -0.673,-1.25 -0.33,-1.25 0.344,0 -0.276,-1.681 -1.377,-3.735 -1.101,-2.055 -2.002,-4.305 -2.002,-5 0,-0.696 -0.45,-1.265 -1,-1.265 -0.55,0 -1,-0.711 -1,-1.58 0,-0.869 -3.658,-8.631 -8.128,-17.25 -4.471,-8.618 -8.938,-17.245 -9.928,-19.17 -0.989,-1.925 -2.957,-5.05 -4.372,-6.944 -1.414,-1.895 -2.572,-3.827 -2.572,-4.294 0,-1.821 -23.081,-33.896 -32.665,-45.393 -15.918,-19.095 -31.551,-35.095 -45.307,-46.369 -2.349,-1.925 -5.228,-4.409 -6.399,-5.519 -14.246,-13.511 -67.666,-47.217 -88.144,-55.615 -2.192,-0.899 -7.81,-3.24 -12.485,-5.202 -10.702,-4.492 -24.849,-9.777 -32,-11.954 -3.025,-0.921 -9.325,-2.855 -14,-4.298 -4.675,-1.443 -9.404,-2.728 -10.509,-2.854 -1.106,-0.127 -2.906,-0.691 -4,-1.255 -1.095,-0.564 -3.566,-1.274 -5.491,-1.579 -1.925,-0.305 -4.253,-0.852 -5.173,-1.216 -1.085,-0.43 -2.01,-0.02 -2.629,1.164 m -70.474,61.937 c -0.207,0.207 -2.817,0.833 -5.8,1.391 -14.891,2.785 -35.098,18.472 -41.849,32.489 -7.764,16.122 -8.667,28.2 -3.637,48.644 1.185,4.815 11.79,21.867 13.599,21.867 0.53,0 0.963,0.675 0.963,1.5 0,0.825 0.337,1.512 0.75,1.526 0.413,0.015 3.816,2.94 7.564,6.5 3.748,3.561 7.265,6.474 7.817,6.474 0.551,0 2.479,1.126 4.284,2.503 1.805,1.376 5.262,3.551 7.683,4.832 l 4.402,2.33 0.189,9.918 c 0.104,5.454 0.36,12.392 0.57,15.417 0.209,3.025 0.179,6.31 -0.069,7.3 -0.254,1.018 -3.466,3.292 -7.384,5.228 -13.863,6.851 -21.041,14.273 -25.84,26.716 -2.614,6.778 -3.136,9.491 -3.066,15.942 0.099,9.281 1.328,15.566 4.357,22.293 2.546,5.65 2.898,6.137 9.461,13.079 8.643,9.142 18.67,15.705 27.223,17.817 l 4.558,1.125 0.153,19.5 c 0.084,10.725 0.419,27.375 0.745,37 0.326,9.625 0.834,33.475 1.13,53 0.295,19.525 0.756,49.675 1.023,67 0.267,17.325 0.714,63.369 0.993,102.319 l 0.507,70.819 -6.275,-0.547 c -3.451,-0.3 -10.325,-0.833 -15.275,-1.183 -4.95,-0.351 -9.47,-1.014 -10.045,-1.475 -0.711,-0.57 -1.112,-29.309 -1.252,-89.636 -0.114,-48.838 -0.411,-112.508 -0.66,-141.488 l -0.453,-52.69 -7.795,-8.229 C 471.008,547.364 461.425,537.491 454,529.95 431.257,506.85 420.621,495.68 417.388,491.5 l -3.093,-4 0.142,-25.877 0.143,-25.876 2.682,-2.139 c 4.446,-3.545 11.539,-14.501 13.814,-21.337 4.908,-14.748 2.366,-30.608 -6.935,-43.271 -4.62,-6.29 -13.445,-13.913 -20.108,-17.369 -11.089,-5.751 -16.046,-6.906 -30.033,-6.997 -8.444,-0.054 -10.471,0.31 -18.232,3.278 -4.803,1.837 -9.245,3.958 -9.873,4.714 -0.627,0.756 -1.567,1.374 -2.089,1.374 -0.522,0 -1.542,0.593 -2.267,1.318 -0.725,0.726 -2.615,2.413 -4.198,3.75 -3.248,2.743 -5.807,6.635 -10.253,15.596 -8.221,16.569 -3.22,38.732 12.061,53.451 9.987,9.62 18.966,13.978 31.811,15.439 2.453,0.279 4.718,0.924 5.032,1.434 0.315,0.509 0.68,13.207 0.81,28.219 0.131,15.011 0.513,28.193 0.849,29.293 0.336,1.1 2.239,3.609 4.23,5.576 1.99,1.967 7.894,8.21 13.119,13.875 5.225,5.664 11.525,12.414 14,15 2.475,2.585 9.675,10.261 16,17.057 6.325,6.797 12.898,13.759 14.606,15.472 2.168,2.173 3.312,4.49 3.789,7.669 0.998,6.652 2.208,115.002 1.689,151.222 l -0.084,5.871 -13.25,-0.569 c -15.261,-0.654 -22.56,-1.556 -23.383,-2.889 -0.318,-0.514 -0.61,-20.718 -0.649,-44.896 l -0.07,-43.959 -2.574,-2.809 c -1.416,-1.545 -4.824,-5.41 -7.574,-8.59 -2.75,-3.18 -6.8,-7.682 -9,-10.006 -5.952,-6.286 -35.686,-37.332 -46,-48.03 -22.15,-22.973 -20.991,-21.53 -22.477,-27.994 -0.758,-3.3 -1.534,-6.9 -1.724,-8 -0.19,-1.1 -1.685,-3.874 -3.322,-6.163 -1.637,-2.29 -2.977,-4.407 -2.977,-4.705 0,-0.863 -4.793,-5.422 -10.164,-9.667 -9.268,-7.326 -25.634,-10.396 -37.836,-7.098 -9.504,2.569 -16.075,7.067 -22.288,15.258 -6.607,8.711 -8.594,14.647 -8.019,23.958 1.116,18.089 11.967,32.366 29.807,39.219 3.658,1.406 7.549,1.923 14.5,1.929 8.382,0.008 10.319,-0.347 16.459,-3.015 l 6.958,-3.024 2.393,2.154 c 5.007,4.508 9.926,9.565 16.69,17.158 3.85,4.322 9.025,9.992 11.5,12.601 2.475,2.608 8.864,9.389 14.199,15.068 5.334,5.68 12.354,13.131 15.6,16.559 l 5.901,6.232 0.186,9.768 c 0.102,5.372 0.364,11.497 0.583,13.61 0.219,2.113 0.198,4.363 -0.047,5 -0.305,0.795 -4.185,1.129 -12.392,1.065 -12.511,-0.098 -15.03,-0.864 -15.03,-4.569 0,-3.223 -3.966,-9.922 -9.067,-15.316 -5.221,-5.519 -16.161,-11.665 -23.933,-13.443 -21.119,-4.833 -40.456,5.566 -48.561,26.113 -1.784,4.524 -2.205,7.419 -2.051,14.12 0.173,7.518 0.594,9.229 3.897,15.823 4.762,9.51 8.533,14.015 15.731,18.797 11.026,7.323 21.959,9.88 34.065,7.966 5.56,-0.879 15.3,-6.577 20.21,-11.823 l 2.791,-2.982 16.438,0.266 c 9.041,0.147 16.775,0.603 17.187,1.015 0.412,0.412 0.655,3.917 0.54,7.789 -0.114,3.873 0.25,7.896 0.809,8.942 0.56,1.045 5.838,6.765 11.731,12.709 5.892,5.945 13.063,13.369 15.935,16.498 4.255,4.635 5.828,5.7 8.5,5.75 1.803,0.034 10.93,0.164 20.282,0.289 9.352,0.125 17.474,0.518 18.05,0.873 0.694,0.429 0.989,9.685 0.875,27.462 -0.265,41.356 0.126,37.314 -3.608,37.314 -1.748,0 -4.561,-0.42 -6.25,-0.932 -1.689,-0.513 -5.096,-1.45 -7.571,-2.083 -2.475,-0.632 -6.286,-1.667 -8.468,-2.299 -2.182,-0.633 -4.432,-1.172 -5,-1.199 -0.568,-0.027 -2.774,-0.823 -4.904,-1.768 -2.13,-0.946 -4.331,-1.719 -4.892,-1.719 -0.562,0 -4.669,-1.524 -9.128,-3.386 -4.46,-1.862 -10.133,-4.146 -12.608,-5.076 -5.644,-2.119 -43.979,-22.182 -49.9,-26.115 -13.983,-9.289 -18.159,-12.097 -20.282,-13.639 -3.344,-2.428 -6.164,-1.299 -8.859,3.546 -2.703,4.861 -11.49,18.216 -16.193,24.61 -1.796,2.442 -4.275,6.253 -5.508,8.469 l -2.241,4.029 2.741,2.276 c 4.774,3.962 19.185,13.591 28.63,19.13 11.847,6.948 47.608,24.93 52.957,26.628 2.285,0.726 7.305,2.669 11.155,4.319 6.482,2.777 9.283,3.83 23,8.643 4.203,1.474 23.146,6.53 30,8.007 1.1,0.237 4.25,0.924 7,1.526 8.074,1.767 32.573,5.98 38,6.534 2.75,0.28 7.025,0.716 9.5,0.967 11.752,1.195 30.259,1.908 48,1.85 20.983,-0.068 26.503,-0.412 45.5,-2.829 1.65,-0.21 5.25,-0.666 8,-1.013 5.28,-0.666 17.627,-2.807 26,-4.507 2.75,-0.558 6.35,-1.251 8,-1.538 7.589,-1.322 19.173,-4.905 20.825,-6.44 1.757,-1.633 1.658,-2.027 -2.656,-10.594 -2.464,-4.893 -5.244,-10.697 -6.176,-12.897 -0.932,-2.2 -4.012,-8.725 -6.844,-14.5 -6.025,-12.287 -4.325,-11.718 -21.649,-7.25 -14.507,3.741 -23.365,5.339 -37.75,6.808 -6.044,0.617 -6.255,0.561 -6.408,-1.71 -0.766,-11.411 -1.051,-71.701 -0.344,-72.845 0.298,-0.482 1.77,-1.522 3.272,-2.311 1.501,-0.789 4.98,-2.687 7.73,-4.217 2.75,-1.53 6.35,-3.474 8,-4.319 1.65,-0.845 5.235,-3.139 7.967,-5.096 2.732,-1.958 5.207,-3.513 5.5,-3.455 0.293,0.057 2.212,-0.955 4.263,-2.25 2.052,-1.295 3.996,-2.355 4.32,-2.355 0.324,0 2.552,-1.35 4.95,-3 2.398,-1.65 4.636,-3 4.973,-3 0.337,0 3.406,-1.762 6.82,-3.915 3.414,-2.154 7.706,-4.858 9.539,-6.009 1.833,-1.151 3.633,-1.909 4,-1.684 0.593,0.363 11.276,1.038 32.602,2.06 5.376,0.257 7.227,0.75 8.235,2.19 11.525,16.465 22.357,22.922 40.147,23.932 4.92,0.28 7.781,-0.192 12.941,-2.135 10.985,-4.134 16.202,-8.96 21.793,-20.158 3.482,-6.973 3.885,-8.56 3.876,-15.281 -0.019,-15.044 -3.167,-22.842 -13.124,-32.51 -7.314,-7.101 -11.501,-9.409 -21.639,-11.928 -11.708,-2.909 -22.645,-1.337 -31.163,4.48 -4.617,3.153 -10.31,9.112 -12.887,13.489 l -1.785,3.031 -8.664,-0.288 c -8.597,-0.286 -27.231,-1.017 -30.223,-1.186 -1.328,-0.075 -1.528,-1.756 -1.346,-11.338 0.258,-13.572 0.163,-12.75 1.475,-12.75 0.588,0 2.951,-1.237 5.25,-2.75 2.299,-1.513 5.98,-3.616 8.18,-4.675 2.2,-1.059 5.35,-2.755 7,-3.767 17.915,-10.999 40.692,-24.288 46.805,-27.309 l 7.6,-3.756 3.197,2.689 c 7.83,6.589 23.496,11.907 32.212,10.935 11.378,-1.268 16.452,-3.513 23.261,-10.287 8.771,-8.728 12.393,-17.937 11.998,-30.509 -0.47,-14.957 -8.528,-27.788 -22.479,-35.794 -13.409,-7.695 -31.452,-7.38 -43.718,0.762 -6.82,4.526 -9.976,8.466 -15.218,18.992 -3.062,6.148 -5.065,8.963 -6.976,9.808 -1.475,0.651 -4.482,2.319 -6.682,3.705 -2.2,1.386 -5.907,3.405 -8.239,4.488 -2.331,1.082 -4.243,2.305 -4.25,2.718 -0.006,0.413 -0.427,0.75 -0.936,0.75 -0.509,0 -5.796,2.768 -11.75,6.152 -5.954,3.383 -12.36,7.016 -14.236,8.073 -1.876,1.057 -5.018,3.014 -6.982,4.348 -1.964,1.335 -4.029,2.427 -4.589,2.427 -0.934,-10e-4 -1.215,-10.603 -1.882,-70.794 l -0.136,-12.294 8,-4.43 c 4.4,-2.436 13.175,-7.002 19.5,-10.145 6.325,-3.144 11.725,-5.968 12,-6.277 0.275,-0.308 3.65,-2.135 7.5,-4.06 3.85,-1.925 7.342,-3.95 7.761,-4.5 0.418,-0.55 0.555,-3.487 0.304,-6.526 -1.08,-13.054 -1.63,-45.569 -0.79,-46.774 0.498,-0.715 1.764,-1.272 2.815,-1.237 1.05,0.035 5.06,0.238 8.91,0.452 9.883,0.549 16.892,-0.819 25.194,-4.918 10.495,-5.18 17.674,-13.686 22.365,-26.497 1.638,-4.474 2.136,-19.71 0.802,-24.542 -0.563,-2.039 -1.2,-4.622 -1.415,-5.739 -0.814,-4.225 -7.215,-13.379 -14.45,-20.664 -6.041,-6.082 -9.355,-8.461 -17,-12.205 -16.823,-8.237 -32.535,-8.365 -49.18,-0.399 -14.603,6.989 -26.25,26.606 -26.152,44.049 0.035,6.105 3.444,17.066 8.087,26 0.878,1.689 1.662,6.058 1.795,10 1.13,33.608 1.599,44.226 2.018,45.618 0.304,1.009 -0.558,2.303 -2.288,3.437 -1.527,1 -2.951,1.696 -3.164,1.546 -0.214,-0.149 -0.664,0.142 -1,0.647 -0.337,0.505 -3.312,2.183 -6.612,3.728 -24.527,11.484 -43.086,21.832 -43.757,24.398 -0.259,0.992 -0.33,8.064 -0.157,15.715 0.173,7.651 0.587,29.886 0.921,49.411 0.334,19.525 0.76,38.425 0.946,42 0.568,10.899 1,74.888 0.508,75.266 -0.57,0.438 -13.203,7.801 -17.961,10.469 -1.925,1.079 -5.885,3.433 -8.8,5.23 -2.915,1.798 -5.615,2.953 -6,2.569 -0.879,-0.879 -0.777,1.862 -1.593,-43.034 -1.213,-66.747 -1.651,-87.669 -2.135,-102 -0.876,-25.909 -1.31,-83.146 -0.638,-84.077 0.366,-0.508 3.325,-2.273 6.576,-3.923 3.25,-1.65 7.804,-4.8 10.119,-7 4.293,-4.078 10.901,-15.584 12.062,-21 1.241,-5.789 1.106,-17.039 -0.276,-22.99 -1.276,-5.497 -4.833,-14.297 -6.269,-15.51 -0.326,-0.275 -1.357,-1.703 -2.293,-3.174 -3.748,-5.896 -11.428,-13.041 -18.611,-17.316 -4.168,-2.48 -8.14,-4.51 -8.825,-4.51 -2.519,0 -3.455,-4.435 -3.981,-18.868 l -0.539,-14.765 7.852,-2.257 c 18.328,-5.268 27.738,-11.773 39.943,-27.61 3.631,-4.712 8.035,-15.285 9.462,-22.722 1.174,-6.11 1.065,-19.221 -0.186,-22.579 -0.472,-1.266 -1.11,-3.732 -1.417,-5.48 -1.481,-8.406 -8.782,-20.428 -18.851,-31.038 -3.585,-3.778 -16.746,-12.606 -22.116,-14.834 -16.009,-6.643 -22.578,-8.005 -37.491,-7.77 -5.441,0.085 -10.061,0.325 -10.269,0.532 m 9.01,41.575 c -8.629,1.813 -16.336,8.049 -18.663,15.1 -1.466,4.443 -0.675,13.124 1.508,16.549 3.84,6.024 8.808,11.323 12.257,13.076 12.233,6.214 24.809,6.381 33.378,0.443 6.873,-4.763 8.967,-9 8.988,-18.188 0.017,-6.796 -2.603,-13.352 -7.34,-18.37 -4.562,-4.832 -7.53,-6.557 -14.344,-8.331 -6.004,-1.564 -9.385,-1.624 -15.784,-0.279 M 374.872,376.462 c -0.272,0.271 -1.366,0.638 -2.433,0.817 -10.816,1.805 -16.662,14.482 -11.419,24.76 2.714,5.32 8.298,8.824 16.13,10.122 5.749,0.952 6.857,0.845 10.876,-1.053 2.481,-1.172 5.543,-3.685 6.874,-5.641 2.464,-3.623 3.837,-11.398 2.765,-15.663 -0.873,-3.472 -8.193,-10.802 -11.897,-11.914 -4.227,-1.268 -10.265,-2.06 -10.896,-1.428 m 301.22,17.087 c -3.879,1.797 -5.088,3.03 -6.762,6.898 -4.345,10.038 -0.544,19.579 9.758,24.494 14.374,6.858 28.163,-1.411 26.6,-15.951 -1.428,-13.28 -16.87,-21.337 -29.596,-15.441 M 514.387,428.75 c -7.482,4.249 -11.793,10.06 -11.585,15.613 0.361,9.592 7.87,19.271 16.513,21.286 4.827,1.126 11.849,0.375 16.513,-1.765 3.782,-1.735 5.473,-3.32 7.625,-7.148 2.366,-4.208 2.691,-5.707 2.249,-10.361 -0.477,-5.028 -1.315,-6.968 -5.004,-11.592 -0.754,-0.945 -3.965,-3.082 -7.136,-4.75 -6.812,-3.584 -14.247,-4.081 -19.175,-1.283"
   stroke-linecap="round"
   id="path2" />
</g>
<g
   id="g4">
<g
   id="g3">
</g>
</g>
</svg>
